<?xml version="1.0" encoding="UTF-8"?>
<svg version="1.1" xmlns="http://www.w3.org/2000/svg" width="150" height="47">
<path d="M0 0 C2.97 0.495 2.97 0.495 6 1 C6 1.66 6 2.32 6 3 C6.98742187 3 7.97484375 3 8.9921875 3 C14.99479167 3 20.99739583 3 27 3 C27 5.97 27 8.94 27 12 C25.35 12.33 23.7 12.66 22 13 C21.505 11.515 21.505 11.515 21 10 C19.78763672 10.12568359 19.78763672 10.12568359 18.55078125 10.25390625 C17.48214844 10.35574219 16.41351563 10.45757812 15.3125 10.5625 C13.72888672 10.71912109 13.72888672 10.71912109 12.11328125 10.87890625 C9.16312516 10.99365511 6.86744061 10.59601466 4 10 C1.7220273 10.12347305 1.7220273 10.12347305 -0.5 10.5 C-3.95525856 10.95267898 -6.59639771 10.87521202 -10 10 C-11.32 10 -12.64 10 -14 10 C-14.99 8.02 -14.99 8.02 -16 6 C-16.33 7.32 -16.66 8.64 -17 10 C-23.625 11.25 -23.625 11.25 -27 9 C-29.15274948 9.30840599 -29.15274948 9.30840599 -31 10 C-31.495 9.01 -31.495 9.01 -32 8 C-32.53625 8.495 -33.0725 8.99 -33.625 9.5 C-36.62494296 11.39470082 -38.51044604 11.30343947 -42 11 C-42.66 10.67 -43.32 10.34 -44 10 C-44 9.34 -44 8.68 -44 8 C-44.66 8 -45.32 8 -46 8 C-46.33 8.99 -46.66 9.98 -47 11 C-49.64 10.67 -52.28 10.34 -55 10 C-55.33 9.01 -55.66 8.02 -56 7 C-56.99 8.98 -57.98 10.96 -59 13 C-59.99 13 -60.98 13 -62 13 C-62 12.34 -62 11.68 -62 11 C-61.34 11 -60.68 11 -60 11 C-60.33 10.34 -60.66 9.68 -61 9 C-61.66 9.66 -62.32 10.32 -63 11 C-65.09375 11.23046875 -65.09375 11.23046875 -67.5 11.1875 C-68.2940625 11.18105469 -69.088125 11.17460937 -69.90625 11.16796875 C-72 11 -72 11 -74 10 C-76.09821215 10.39938767 -76.09821215 10.39938767 -78 11 C-78.99 9.35 -79.98 7.7 -81 6 C-80.34 5.01 -79.68 4.02 -79 3 C-77.6696875 3.2784375 -77.6696875 3.2784375 -76.3125 3.5625 C-73.12314551 3.9837355 -71.07900171 3.76975043 -68 3 C-63.66666667 3 -59.33333333 3 -55 3 C-55 2.34 -55 1.68 -55 1 C-44 1 -44 1 -42.1875 1.5625 C-39.95756414 2.15604285 -39.95756414 2.15604285 -37.5625 1.5 C-34.6805444 0.9376672 -32.79610544 1.14563445 -30 2 C-29.505 2.99 -29.505 2.99 -29 4 C-28.67 3.01 -28.34 2.02 -28 1 C-27.01 1 -26.02 1 -25 1 C-24.505 1.99 -24.505 1.99 -24 3 C-22.02919843 3.74276031 -22.02919843 3.74276031 -20 4 C-19.67 3.67 -19.34 3.34 -19 3 C-17.65732587 2.91368126 -16.31025678 2.89293527 -14.96484375 2.90234375 C-14.15595703 2.90556641 -13.34707031 2.90878906 -12.51367188 2.91210938 C-11.66353516 2.92048828 -10.81339844 2.92886719 -9.9375 2.9375 C-9.08349609 2.94201172 -8.22949219 2.94652344 -7.34960938 2.95117188 C-5.23304337 2.96299627 -3.11651315 2.98093231 -1 3 C-0.67 2.01 -0.34 1.02 0 0 Z M-53 3 C-51.68 3.33 -50.36 3.66 -49 4 C-49 4.99 -49 5.98 -49 7 C-50.32 7.33 -51.64 7.66 -53 8 C-51.35 8 -49.7 8 -48 8 C-47.40929986 6.05396726 -47.40929986 6.05396726 -47 4 C-48.06645115 2.70366379 -48.06645115 2.70366379 -50.5625 2.9375 C-51.366875 2.958125 -52.17125 2.97875 -53 3 Z M-42 3 C-42.33 4.32 -42.66 5.64 -43 7 C-42.34 5.68 -41.68 4.36 -41 3 C-41.33 3 -41.66 3 -42 3 Z M-38 3 C-38.33 4.32 -38.66 5.64 -39 7 C-37.68 7 -36.36 7 -35 7 C-35.33 5.68 -35.66 4.36 -36 3 C-36.66 3 -37.32 3 -38 3 Z M6 5 C7 8 7 8 7 8 Z M23 5 C23 5.99 23 6.98 23 8 C23.66 8 24.32 8 25 8 C25 7.01 25 6.02 25 5 C24.34 5 23.68 5 23 5 Z M-71 7 C-70 9 -70 9 -70 9 Z " fill="#282B2A" transform="translate(119,16)"/>
<path d="M0 0 C0.66 1.32 1.32 2.64 2 4 C3.299375 3.979375 4.59875 3.95875 5.9375 3.9375 C7.29165633 3.91600546 8.64756083 3.92851801 10 4 C11.5220959 5.5220959 11.12959521 6.88210082 11.1328125 9 C11.13474609 10.2065625 11.13474609 10.2065625 11.13671875 11.4375 C11.13285156 12.283125 11.12898438 13.12875 11.125 14 C11.13080078 15.2684375 11.13080078 15.2684375 11.13671875 16.5625 C11.13542969 17.366875 11.13414063 18.17125 11.1328125 19 C11.13168457 19.7425 11.13055664 20.485 11.12939453 21.25 C11 23 11 23 10 24 C8.48530552 24.23192865 6.96245438 24.41215238 5.4375 24.5625 C4.19806641 24.68818359 4.19806641 24.68818359 2.93359375 24.81640625 C2.29550781 24.87699219 1.65742188 24.93757813 1 25 C0.67 25.99 0.34 26.98 0 28 C-6.47578998 28.43171933 -11.78831485 26.8404993 -18 25 C-18 17.74 -18 10.48 -18 3 C-5.94642857 -0.21428571 -5.94642857 -0.21428571 0 0 Z " fill="#481EA9" transform="translate(22,10)"/>
<path d="M0 0 C0.33 0.99 0.66 1.98 1 3 C1.33 2.01 1.66 1.02 2 0 C4.97 0 7.94 0 11 0 C11 4.62 11 9.24 11 14 C2.50390625 14.09765625 2.50390625 14.09765625 0 14 C-0.33 13.67 -0.66 13.34 -1 13 C-4.33618231 12.85742811 -7.65975606 12.95771843 -11 13 C-11 9.04 -11 5.08 -11 1 C-4.06640625 0.90234375 -4.06640625 0.90234375 -2 1 C-1.67 1.33 -1.34 1.66 -1 2 C-0.67 1.34 -0.34 0.68 0 0 Z " fill="#411AAA" transform="translate(20,17)"/>
<path d="M0 0 C0.66 0.66 1.32 1.32 2 2 C4.06874034 2.6425235 4.06874034 2.6425235 6 3 C6.042721 4.66611905 6.04063832 6.33382885 6 8 C5 9 5 9 2.4375 9.0625 C1.633125 9.041875 0.82875 9.02125 0 9 C-0.33 8.01 -0.66 7.02 -1 6 C-1.99 7.98 -2.98 9.96 -4 12 C-4.99 12 -5.98 12 -7 12 C-7 11.34 -7 10.68 -7 10 C-6.34 10 -5.68 10 -5 10 C-5.33 9.34 -5.66 8.68 -6 8 C-6.66 8.66 -7.32 9.32 -8 10 C-10.09375 10.23046875 -10.09375 10.23046875 -12.5 10.1875 C-13.2940625 10.18105469 -14.088125 10.17460937 -14.90625 10.16796875 C-17 10 -17 10 -19 9 C-21.09821215 9.39938767 -21.09821215 9.39938767 -23 10 C-23.99 8.35 -24.98 6.7 -26 5 C-25.34 4.01 -24.68 3.02 -24 2 C-22.6696875 2.2784375 -22.6696875 2.2784375 -21.3125 2.5625 C-18.12314551 2.9837355 -16.07900171 2.76975043 -13 2 C-8.66666667 2 -4.33333333 2 0 2 C0 1.34 0 0.68 0 0 Z M-16 6 C-15 8 -15 8 -15 8 Z " fill="#1D2020" transform="translate(64,17)"/>
<path d="M0 0 C0.66 0 1.32 0 2 0 C2 2.64 2 5.28 2 8 C-3.36323883 9.15961921 -8.53422617 9 -14 9 C-14.268125 8.21625 -14.53625 7.4325 -14.8125 6.625 C-15.84814432 3.71885077 -15.84814432 3.71885077 -19 2 C-13.06 2 -7.12 2 -1 2 C-0.67 1.34 -0.34 0.68 0 0 Z " fill="#1A1C1C" transform="translate(119,17)"/>
<path d="M0 0 C4 0 8 0 12 0 C12 2.97 12 5.94 12 9 C10.35 9.33 8.7 9.66 7 10 C6.67 9.01 6.34 8.02 6 7 C4.02 7 2.04 7 0 7 C0 4.69 0 2.38 0 0 Z M8 2 C8 2.99 8 3.98 8 5 C8.66 5 9.32 5 10 5 C10 4.01 10 3.02 10 2 C9.34 2 8.68 2 8 2 Z " fill="#191A1A" transform="translate(134,19)"/>
<path d="M0 0 C2.97 0 5.94 0 9 0 C9 4.62 9 9.24 9 14 C6.03 14 3.06 14 0 14 C0 13.34 0 12.68 0 12 C2 10.375 2 10.375 4 9 C4.33 9.99 4.66 10.98 5 12 C5.66 12 6.32 12 7 12 C6.34 11.01 5.68 10.02 5 9 C5.375 5.8125 5.375 5.8125 6 3 C5.67 3.66 5.34 4.32 5 5 C4.01 4.67 3.02 4.34 2 4 C2 3.34 2 2.68 2 2 C1.34 2 0.68 2 0 2 C0 1.34 0 0.68 0 0 Z " fill="#CDC6DB" transform="translate(22,17)"/>
<path d="M0 0 C2.64 0 5.28 0 8 0 C8 0.66 8 1.32 8 2 C6.35 2 4.7 2 3 2 C3 2.99 3 3.98 3 5 C4.32 5 5.64 5 7 5 C7 5.66 7 6.32 7 7 C5.68 7 4.36 7 3 7 C3 7.99 3 8.98 3 10 C4.65 10 6.3 10 8 10 C8 10.66 8 11.32 8 12 C5.36 12 2.72 12 0 12 C0 8.04 0 4.08 0 0 Z " fill="#E7E4E9" transform="translate(9,18)"/>
<path d="M0 0 C4.33333333 0 8.66666667 0 13 0 C12.34 2.97 11.68 5.94 11 9 C10.67 8.34 10.34 7.68 10 7 C9.34 7 8.68 7 8 7 C7.67 7.99 7.34 8.98 7 10 C6.01 10 5.02 10 4 10 C4.495 9.1028125 4.495 9.1028125 5 8.1875 C6.20787988 5.94613529 6.20787988 5.94613529 6 3 C3.03 2.505 3.03 2.505 0 2 C0 1.34 0 0.68 0 0 Z " fill="#1D1F1F" transform="translate(65,17)"/>
<path d="M0 0 C4.55555556 0.55555556 4.55555556 0.55555556 6 2 C6.04080783 3.99958364 6.04254356 6.00045254 6 8 C2.21812119 9.83691257 0.05431692 10.15837626 -4 9 C-2.25 2.25 -2.25 2.25 0 0 Z M1 2 C0.67 3.32 0.34 4.64 0 6 C1.32 6 2.64 6 4 6 C3.67 4.68 3.34 3.36 3 2 C2.34 2 1.68 2 1 2 Z " fill="#111414" transform="translate(80,17)"/>
<path d="M0 0 C3 1 3 1 4 3 C4.33 2.01 4.66 1.02 5 0 C5.99 0 6.98 0 8 0 C8 1.65 8 3.3 8 5 C7.34 5 6.68 5 6 5 C5.67 6.32 5.34 7.64 5 9 C4.01 9 3.02 9 2 9 C0.14223235 5.86501708 -0.20140476 3.62528568 0 0 Z " fill="#2C2E2E" transform="translate(86,17)"/>
<path d="M0 0 C0.66 0.66 1.32 1.32 2 2 C4.06874034 2.6425235 4.06874034 2.6425235 6 3 C6.042721 4.66611905 6.04063832 6.33382885 6 8 C5 9 5 9 2.4375 9.0625 C1.633125 9.041875 0.82875 9.02125 0 9 C-1.125 2.25 -1.125 2.25 0 0 Z " fill="#161918" transform="translate(64,17)"/>
<path d="M0 0 C0.66 0 1.32 0 2 0 C2 2.64 2 5.28 2 8 C0.824375 8.2165625 0.824375 8.2165625 -0.375 8.4375 C-2.96421018 8.87798925 -2.96421018 8.87798925 -5 10 C-4.75 7.625 -4.75 7.625 -4 5 C-1.9375 3.6875 -1.9375 3.6875 0 3 C0 2.01 0 1.02 0 0 Z " fill="#060707" transform="translate(119,17)"/>
<path d="M0 0 C5.75 -0.125 5.75 -0.125 8 1 C8 1.99 8 2.98 8 4 C8.66 4 9.32 4 10 4 C9.67 4.99 9.34 5.98 9 7 C7.68 7 6.36 7 5 7 C4.731875 6.21625 4.46375 5.4325 4.1875 4.625 C3.15185568 1.71885077 3.15185568 1.71885077 0 0 Z " fill="#2A2C2C" transform="translate(100,19)"/>
<path d="M0 0 C1.2065625 0.0309375 1.2065625 0.0309375 2.4375 0.0625 C2.4375 3.0325 2.4375 6.0025 2.4375 9.0625 C1.4475 8.0725 0.4575 7.0825 -0.5625 6.0625 C-0.25 3.875 -0.25 3.875 0.4375 2.0625 C-0.2225 2.0625 -0.8825 2.0625 -1.5625 2.0625 C-1.8925 2.7225 -2.2225 3.3825 -2.5625 4.0625 C-2.8925 3.0725 -3.2225 2.0825 -3.5625 1.0625 C-2.5625 0.0625 -2.5625 0.0625 0 0 Z " fill="#191D1C" transform="translate(143.5625,18.9375)"/>
<path d="M0 0 C1.32 0 2.64 0 4 0 C4 0.66 4 1.32 4 2 C3.01 2 2.02 2 1 2 C1 2.66 1 3.32 1 4 C1.66 4.33 2.32 4.66 3 5 C3 5.99 3 6.98 3 8 C1.0625 7.1875 1.0625 7.1875 -1 6 C-1.33 5.01 -1.66 4.02 -2 3 C-1.34 2.01 -0.68 1.02 0 0 Z " fill="#121414" transform="translate(40,19)"/>
<path d="M0 0 C0.66 0.33 1.32 0.66 2 1 C2 1.66 2 2.32 2 3 C2.99 3 3.98 3 5 3 C5 3.66 5 4.32 5 5 C2.36 5 -0.28 5 -3 5 C-3 3 -3 3 -1.5 1.375 C-1.005 0.92125 -0.51 0.4675 0 0 Z " fill="#E7E5EA" transform="translate(25,26)"/>
<path d="M0 0 C0.33 0.66 0.66 1.32 1 2 C1.66 2 2.32 2 3 2 C3.33 1.34 3.66 0.68 4 0 C4.33 0.99 4.66 1.98 5 3 C4.34 3.66 3.68 4.32 3 5 C3 4.34 3 3.68 3 3 C2.34 3 1.68 3 1 3 C0.67 3.99 0.34 4.98 0 6 C-0.99 6 -1.98 6 -3 6 C-2 4 -1 2 0 0 Z " fill="#393C3B" transform="translate(72,21)"/>
<path d="M0 0 C1.65 1.32 3.3 2.64 5 4 C4.01 4.495 4.01 4.495 3 5 C3.66 5.33 4.32 5.66 5 6 C5 6.66 5 7.32 5 8 C3.35 7.67 1.7 7.34 0 7 C0 4.69 0 2.38 0 0 Z " fill="#0C0F0F" transform="translate(140,21)"/>
<path d="M0 0 C0.99 0.33 1.98 0.66 3 1 C3 2.32 3 3.64 3 5 C2.34 5.66 1.68 6.32 1 7 C0.01 7 -0.98 7 -2 7 C-1.34 4.69 -0.68 2.38 0 0 Z " fill="#242727" transform="translate(78,19)"/>
<path d="M0 0 C3.375 -0.125 3.375 -0.125 7 0 C7.66 0.66 8.32 1.32 9 2 C6.1875 3.125 6.1875 3.125 3 4 C2.01 3.34 1.02 2.68 0 2 C0 1.34 0 0.68 0 0 Z " fill="#272929" transform="translate(111,19)"/>
<path d="M0 0 C0.66 0 1.32 0 2 0 C3.125 4.75 3.125 4.75 2 7 C1.34 7 0.68 7 0 7 C0 4.69 0 2.38 0 0 Z " fill="#9985C5" transform="translate(21,21)"/>
<path d="M0 0 C2.64 0 5.28 0 8 0 C6.515 1.98 6.515 1.98 5 4 C4.01 3.67 3.02 3.34 2 3 C2 2.34 2 1.68 2 1 C1.34 0.67 0.68 0.34 0 0 Z " fill="#F1EFF2" transform="translate(22,18)"/>
</svg>
